# xmcd CD database file
# Copyright (C) 1996 Ti Kan
#
# Track frame offsets:
# 	150
# 	10145
# 	23710
# 	42290
# 	56485
# 	73790
# 	91435
# 	102712
# 	124562
# 	135987
# 	154372
#
# Disc length: 2345 seconds
#
# Revision: 1
# Processed by: cddbd v1.4b41PL1 Copyright (c) Steve Scherf et al.
# Submitted via: DiscPlay 3.3.1
#
DISCID=8f09270b
DTITLE=Mary-Chapin Carpenter - State Of The Heart
DYEAR=1900
DGENRE=
TTITLE0=How Do
TTITLE1=Something Of A Dreamer
TTITLE2=Never Had It So Good
TTITLE3=Read My Lips
TTITLE4=This Shirt
TTITLE5=Quittin' Time
TTITLE6=Down In Mary's Land
TTITLE7=Goodbye Again
TTITLE8=Too Tired
TTITLE9=Slow Country Dance
TTITLE10=It Don't Bring You
EXTD=
EXTT0=
EXTT1=
EXTT2=
EXTT3=
EXTT4=
EXTT5=
EXTT6=
EXTT7=
EXTT8=
EXTT9=
EXTT10=
PLAYORDER=
